<svg xmlns="http://www.w3.org/2000/svg" width="113" height="27" fill="none" viewBox="0 0 113 27"><path fill="#0D9159" d="M0 5C0 2.23858 2.23858 0 5 0H108C110.761 0 113 2.23858 113 5V22C113 24.7614 110.761 27 108 27H5C2.23858 27 0 24.7614 0 22V5Z"/><path fill="#fff" d="M24.4579 7.08715V18.3192H21.7219V11.5832L19.2099 18.3192H17.0019L14.4739 11.5672V18.3192H11.7379V7.08715H14.9699L18.1219 14.8632L21.2419 7.08715H24.4579ZM26.8414 13.8392C26.8414 12.9218 27.0121 12.1165 27.3534 11.4232C27.7054 10.7298 28.1801 10.1965 28.7774 9.82315C29.3748 9.44982 30.0414 9.26315 30.7774 9.26315C31.4068 9.26315 31.9561 9.39115 32.4254 9.64715C32.9054 9.90315 33.2734 10.2392 33.5294 10.6552V9.39115H36.2654V18.3192H33.5294V17.0552C33.2628 17.4712 32.8894 17.8072 32.4094 18.0632C31.9401 18.3192 31.3908 18.4472 30.7614 18.4472C30.0361 18.4472 29.3748 18.2605 28.7774 17.8872C28.1801 17.5032 27.7054 16.9645 27.3534 16.2712C27.0121 15.5672 26.8414 14.7565 26.8414 13.8392ZM33.5294 13.8552C33.5294 13.1725 33.3374 12.6338 32.9534 12.2392C32.5801 11.8445 32.1214 11.6472 31.5774 11.6472C31.0334 11.6472 30.5694 11.8445 30.1854 12.2392C29.8121 12.6232 29.6254 13.1565 29.6254 13.8392C29.6254 14.5218 29.8121 15.0658 30.1854 15.4712C30.5694 15.8658 31.0334 16.0632 31.5774 16.0632C32.1214 16.0632 32.5801 15.8658 32.9534 15.4712C33.3374 15.0765 33.5294 14.5378 33.5294 13.8552ZM38.6608 13.8552C38.6608 12.9272 38.8475 12.1165 39.2208 11.4232C39.6048 10.7298 40.1328 10.1965 40.8048 9.82315C41.4875 9.44982 42.2661 9.26315 43.1408 9.26315C44.2608 9.26315 45.1941 9.55649 45.9408 10.1432C46.6981 10.7298 47.1941 11.5565 47.4288 12.6232H44.5168C44.2715 11.9405 43.7968 11.5992 43.0928 11.5992C42.5915 11.5992 42.1915 11.7965 41.8928 12.1912C41.5941 12.5752 41.4448 13.1298 41.4448 13.8552C41.4448 14.5805 41.5941 15.1405 41.8928 15.5352C42.1915 15.9192 42.5915 16.1112 43.0928 16.1112C43.7968 16.1112 44.2715 15.7698 44.5168 15.0872H47.4288C47.1941 16.1325 46.6981 16.9538 45.9408 17.5512C45.1835 18.1485 44.2501 18.4472 43.1408 18.4472C42.2661 18.4472 41.4875 18.2605 40.8048 17.8872C40.1328 17.5138 39.6048 16.9805 39.2208 16.2872C38.8475 15.5938 38.6608 14.7832 38.6608 13.8552ZM55.3083 18.3192L52.5883 14.5752V18.3192H49.8523V6.47915H52.5883V13.0232L55.2923 9.39115H58.6683L54.9563 13.8712L58.7003 18.3192H55.3083ZM65.6789 15.9992V18.3192H64.2869C63.2949 18.3192 62.5216 18.0792 61.9669 17.5992C61.4123 17.1085 61.1349 16.3138 61.1349 15.2152V11.6632H60.0469V9.39115H61.1349V7.21515H63.8709V9.39115H65.6629V11.6632H63.8709V15.2472C63.8709 15.5138 63.9349 15.7058 64.0629 15.8232C64.1909 15.9405 64.4043 15.9992 64.7029 15.9992H65.6789ZM69.5389 8.46315C69.0589 8.46315 68.6643 8.32449 68.3549 8.04715C68.0563 7.75915 67.9069 7.40715 67.9069 6.99115C67.9069 6.56449 68.0563 6.21249 68.3549 5.93515C68.6643 5.64715 69.0589 5.50315 69.5389 5.50315C70.0083 5.50315 70.3923 5.64715 70.6909 5.93515C71.0003 6.21249 71.1549 6.56449 71.1549 6.99115C71.1549 7.40715 71.0003 7.75915 70.6909 8.04715C70.3923 8.32449 70.0083 8.46315 69.5389 8.46315ZM70.8989 9.39115V18.3192H68.1629V9.39115H70.8989ZM76.5777 10.8792C76.8977 10.3885 77.2977 10.0045 77.7777 9.72715C78.2577 9.43915 78.791 9.29515 79.3777 9.29515V12.1912H78.6257C77.943 12.1912 77.431 12.3405 77.0897 12.6392C76.7483 12.9272 76.5777 13.4392 76.5777 14.1752V18.3192H73.8417V9.39115H76.5777V10.8792ZM90.0614 13.7112C90.0614 13.9672 90.0454 14.2338 90.0134 14.5112H83.8214C83.8641 15.0658 84.0401 15.4925 84.3494 15.7912C84.6694 16.0792 85.0588 16.2232 85.5174 16.2232C86.2001 16.2232 86.6748 15.9352 86.9414 15.3592H89.8534C89.7041 15.9458 89.4321 16.4738 89.0374 16.9432C88.6534 17.4125 88.1681 17.7805 87.5814 18.0472C86.9948 18.3138 86.3388 18.4472 85.6134 18.4472C84.7388 18.4472 83.9601 18.2605 83.2774 17.8872C82.5948 17.5138 82.0614 16.9805 81.6774 16.2872C81.2934 15.5938 81.1014 14.7832 81.1014 13.8552C81.1014 12.9272 81.2881 12.1165 81.6614 11.4232C82.0454 10.7298 82.5788 10.1965 83.2614 9.82315C83.9441 9.44982 84.7281 9.26315 85.6134 9.26315C86.4774 9.26315 87.2454 9.44449 87.9174 9.80715C88.5894 10.1698 89.1121 10.6872 89.4854 11.3592C89.8694 12.0312 90.0614 12.8152 90.0614 13.7112ZM87.2614 12.9912C87.2614 12.5218 87.1014 12.1485 86.7814 11.8712C86.4614 11.5938 86.0614 11.4552 85.5814 11.4552C85.1228 11.4552 84.7334 11.5885 84.4134 11.8552C84.1041 12.1218 83.9121 12.5005 83.8374 12.9912H87.2614ZM97.9528 9.29515C98.9768 9.29515 99.7981 9.63649 100.417 10.3192C101.035 10.9912 101.345 11.9192 101.345 13.1032V18.3192H98.6248V13.4712C98.6248 12.8738 98.4701 12.4098 98.1608 12.0792C97.8515 11.7485 97.4355 11.5832 96.9128 11.5832C96.3901 11.5832 95.9741 11.7485 95.6648 12.0792C95.3555 12.4098 95.2008 12.8738 95.2008 13.4712V18.3192H92.4648V6.47915H95.2008V10.5912C95.4781 10.1965 95.8568 9.88182 96.3368 9.64715C96.8168 9.41249 97.3555 9.29515 97.9528 9.29515Z"/></svg>